<mxfile host="Electron" agent="Mozilla/5.0 (Windows NT 10.0; Win64; x64) AppleWebKit/537.36 (KHTML, like Gecko) draw.io/26.0.9 Chrome/128.0.6613.186 Electron/32.2.5 Safari/537.36" version="26.0.9">
  <diagram name="Страница — 1" id="_R4RXjwRnTJChZPuDV2o">
    <mxGraphModel dx="819" dy="482" grid="1" gridSize="10" guides="1" tooltips="1" connect="1" arrows="1" fold="1" page="1" pageScale="1" pageWidth="827" pageHeight="1169" background="#ffffff" math="0" shadow="0">
      <root>
        <mxCell id="0" />
        <mxCell id="1" parent="0" />
        <mxCell id="RnP18blMsBBMerziqIrX-5" value="&lt;font style=&quot;font-size: 24px;&quot;&gt;Internet&lt;/font&gt;" style="ellipse;shape=cloud;whiteSpace=wrap;html=1;" parent="1" vertex="1">
          <mxGeometry x="194" y="232.75" width="210" height="130" as="geometry" />
        </mxCell>
        <mxCell id="RnP18blMsBBMerziqIrX-6" value="" style="group" parent="1" vertex="1" connectable="0">
          <mxGeometry x="18" y="177" width="62" height="63" as="geometry" />
        </mxCell>
        <mxCell id="RnP18blMsBBMerziqIrX-3" value="Laptop" style="whiteSpace=wrap;html=1;aspect=fixed;" parent="RnP18blMsBBMerziqIrX-6" vertex="1">
          <mxGeometry width="62" height="62" as="geometry" />
        </mxCell>
        <mxCell id="RnP18blMsBBMerziqIrX-7" value="Reverse&lt;div&gt;proxy&lt;/div&gt;&lt;div&gt;&lt;br&gt;&lt;/div&gt;&lt;div&gt;https://&lt;span style=&quot;font-size:11.0pt;line-height:107%;&lt;br/&gt;font-family:&amp;quot;Calibri&amp;quot;,sans-serif;mso-ascii-theme-font:minor-latin;mso-fareast-font-family:&lt;br/&gt;Calibri;mso-fareast-theme-font:minor-latin;mso-hansi-theme-font:minor-latin;&lt;br/&gt;mso-bidi-font-family:&amp;quot;Times New Roman&amp;quot;;mso-bidi-theme-font:minor-bidi;&lt;br/&gt;mso-ansi-language:RU;mso-fareast-language:EN-US;mso-bidi-language:AR-SA&quot;&gt;nealford&lt;/span&gt;.com&lt;/div&gt;" style="whiteSpace=wrap;html=1;aspect=fixed;" parent="1" vertex="1">
          <mxGeometry x="491" y="230.25" width="134" height="134" as="geometry" />
        </mxCell>
        <mxCell id="RnP18blMsBBMerziqIrX-9" value="Client&lt;div&gt;side&lt;/div&gt;" style="text;html=1;align=center;verticalAlign=middle;resizable=0;points=[];autosize=1;strokeColor=none;fillColor=none;fontStyle=4" parent="1" vertex="1">
          <mxGeometry x="30" y="90" width="50" height="40" as="geometry" />
        </mxCell>
        <mxCell id="RnP18blMsBBMerziqIrX-10" value="" style="endArrow=none;html=1;rounded=0;strokeWidth=5;" parent="1" edge="1">
          <mxGeometry width="50" height="50" relative="1" as="geometry">
            <mxPoint x="127" y="530" as="sourcePoint" />
            <mxPoint x="127" y="80" as="targetPoint" />
          </mxGeometry>
        </mxCell>
        <mxCell id="RnP18blMsBBMerziqIrX-13" value="" style="endArrow=none;html=1;rounded=0;strokeWidth=5;" parent="1" edge="1">
          <mxGeometry width="50" height="50" relative="1" as="geometry">
            <mxPoint x="414" y="530" as="sourcePoint" />
            <mxPoint x="414" y="80" as="targetPoint" />
          </mxGeometry>
        </mxCell>
        <mxCell id="RnP18blMsBBMerziqIrX-14" value="Our&lt;div&gt;side&lt;/div&gt;" style="text;html=1;align=center;verticalAlign=middle;resizable=0;points=[];autosize=1;strokeColor=none;fillColor=none;fontStyle=4" parent="1" vertex="1">
          <mxGeometry x="620" y="90" width="50" height="40" as="geometry" />
        </mxCell>
        <mxCell id="RnP18blMsBBMerziqIrX-17" value="" style="group" parent="1" vertex="1" connectable="0">
          <mxGeometry x="18" y="265.5" width="62" height="63" as="geometry" />
        </mxCell>
        <mxCell id="RnP18blMsBBMerziqIrX-18" value="PC" style="whiteSpace=wrap;html=1;aspect=fixed;" parent="RnP18blMsBBMerziqIrX-17" vertex="1">
          <mxGeometry width="62" height="62" as="geometry" />
        </mxCell>
        <mxCell id="RnP18blMsBBMerziqIrX-19" value="" style="group" parent="1" vertex="1" connectable="0">
          <mxGeometry x="18" y="362" width="62" height="63" as="geometry" />
        </mxCell>
        <mxCell id="RnP18blMsBBMerziqIrX-20" value="iOS" style="whiteSpace=wrap;html=1;aspect=fixed;" parent="RnP18blMsBBMerziqIrX-19" vertex="1">
          <mxGeometry width="62" height="62" as="geometry" />
        </mxCell>
        <mxCell id="RnP18blMsBBMerziqIrX-21" value="" style="group" parent="1" vertex="1" connectable="0">
          <mxGeometry x="18" y="450" width="62" height="63" as="geometry" />
        </mxCell>
        <mxCell id="RnP18blMsBBMerziqIrX-22" value="Android" style="whiteSpace=wrap;html=1;aspect=fixed;" parent="RnP18blMsBBMerziqIrX-21" vertex="1">
          <mxGeometry width="62" height="62" as="geometry" />
        </mxCell>
        <mxCell id="RnP18blMsBBMerziqIrX-23" style="edgeStyle=orthogonalEdgeStyle;rounded=0;orthogonalLoop=1;jettySize=auto;html=1;exitX=1;exitY=0.5;exitDx=0;exitDy=0;entryX=0.07;entryY=0.4;entryDx=0;entryDy=0;entryPerimeter=0;" parent="1" source="RnP18blMsBBMerziqIrX-18" target="RnP18blMsBBMerziqIrX-5" edge="1">
          <mxGeometry relative="1" as="geometry">
            <Array as="points">
              <mxPoint x="80" y="284" />
            </Array>
          </mxGeometry>
        </mxCell>
        <mxCell id="RnP18blMsBBMerziqIrX-24" style="edgeStyle=orthogonalEdgeStyle;rounded=0;orthogonalLoop=1;jettySize=auto;html=1;exitX=1;exitY=0.5;exitDx=0;exitDy=0;entryX=0.07;entryY=0.4;entryDx=0;entryDy=0;entryPerimeter=0;" parent="1" source="RnP18blMsBBMerziqIrX-3" target="RnP18blMsBBMerziqIrX-5" edge="1">
          <mxGeometry relative="1" as="geometry">
            <Array as="points">
              <mxPoint x="110" y="208" />
              <mxPoint x="110" y="284" />
            </Array>
          </mxGeometry>
        </mxCell>
        <mxCell id="RnP18blMsBBMerziqIrX-25" style="edgeStyle=orthogonalEdgeStyle;rounded=0;orthogonalLoop=1;jettySize=auto;html=1;exitX=1;exitY=0.5;exitDx=0;exitDy=0;entryX=0.07;entryY=0.4;entryDx=0;entryDy=0;entryPerimeter=0;" parent="1" source="RnP18blMsBBMerziqIrX-20" target="RnP18blMsBBMerziqIrX-5" edge="1">
          <mxGeometry relative="1" as="geometry">
            <Array as="points">
              <mxPoint x="110" y="393" />
              <mxPoint x="110" y="284" />
            </Array>
          </mxGeometry>
        </mxCell>
        <mxCell id="RnP18blMsBBMerziqIrX-26" style="edgeStyle=orthogonalEdgeStyle;rounded=0;orthogonalLoop=1;jettySize=auto;html=1;exitX=1;exitY=0.5;exitDx=0;exitDy=0;entryX=0.07;entryY=0.4;entryDx=0;entryDy=0;entryPerimeter=0;" parent="1" source="RnP18blMsBBMerziqIrX-22" target="RnP18blMsBBMerziqIrX-5" edge="1">
          <mxGeometry relative="1" as="geometry">
            <Array as="points">
              <mxPoint x="110" y="481" />
              <mxPoint x="110" y="284" />
            </Array>
          </mxGeometry>
        </mxCell>
        <mxCell id="9vrs2LWYSdKxphmmJlrF-6" value="https" style="edgeLabel;html=1;align=center;verticalAlign=middle;resizable=0;points=[];" vertex="1" connectable="0" parent="RnP18blMsBBMerziqIrX-26">
          <mxGeometry x="0.6129" relative="1" as="geometry">
            <mxPoint as="offset" />
          </mxGeometry>
        </mxCell>
        <mxCell id="RnP18blMsBBMerziqIrX-29" value="Nginx" style="whiteSpace=wrap;html=1;aspect=fixed;" parent="1" vertex="1">
          <mxGeometry x="880" y="267" width="61.5" height="61.5" as="geometry" />
        </mxCell>
        <mxCell id="RnP18blMsBBMerziqIrX-34" value="PostgreSQL" style="shape=cylinder3;whiteSpace=wrap;html=1;boundedLbl=1;backgroundOutline=1;size=15;" parent="1" vertex="1">
          <mxGeometry x="1060" y="410" width="80" height="65" as="geometry" />
        </mxCell>
        <mxCell id="RnP18blMsBBMerziqIrX-36" value="GUI&lt;div&gt;(php)&lt;/div&gt;" style="whiteSpace=wrap;html=1;aspect=fixed;" parent="1" vertex="1">
          <mxGeometry x="1069.25" y="267" width="61.5" height="61.5" as="geometry" />
        </mxCell>
        <mxCell id="9vrs2LWYSdKxphmmJlrF-8" value="" style="endArrow=classic;startArrow=classic;html=1;rounded=0;entryX=0.5;entryY=1;entryDx=0;entryDy=0;exitX=0.5;exitY=0;exitDx=0;exitDy=0;exitPerimeter=0;" edge="1" parent="1" source="RnP18blMsBBMerziqIrX-34" target="RnP18blMsBBMerziqIrX-36">
          <mxGeometry width="50" height="50" relative="1" as="geometry">
            <mxPoint x="970" y="350" as="sourcePoint" />
            <mxPoint x="1020" y="300" as="targetPoint" />
          </mxGeometry>
        </mxCell>
        <mxCell id="9vrs2LWYSdKxphmmJlrF-9" value="pg_connect" style="edgeLabel;html=1;align=center;verticalAlign=middle;resizable=0;points=[];" vertex="1" connectable="0" parent="9vrs2LWYSdKxphmmJlrF-8">
          <mxGeometry x="-0.0745" y="2" relative="1" as="geometry">
            <mxPoint as="offset" />
          </mxGeometry>
        </mxCell>
        <mxCell id="9vrs2LWYSdKxphmmJlrF-10" value="" style="endArrow=classic;startArrow=classic;html=1;rounded=0;entryX=0;entryY=0.5;entryDx=0;entryDy=0;exitX=1;exitY=0.5;exitDx=0;exitDy=0;" edge="1" parent="1" source="RnP18blMsBBMerziqIrX-29" target="RnP18blMsBBMerziqIrX-36">
          <mxGeometry width="50" height="50" relative="1" as="geometry">
            <mxPoint x="970" y="350" as="sourcePoint" />
            <mxPoint x="1020" y="300" as="targetPoint" />
          </mxGeometry>
        </mxCell>
        <mxCell id="9vrs2LWYSdKxphmmJlrF-11" value="/main" style="edgeLabel;html=1;align=center;verticalAlign=middle;resizable=0;points=[];" vertex="1" connectable="0" parent="9vrs2LWYSdKxphmmJlrF-10">
          <mxGeometry x="-0.31" y="-2" relative="1" as="geometry">
            <mxPoint as="offset" />
          </mxGeometry>
        </mxCell>
        <mxCell id="9vrs2LWYSdKxphmmJlrF-13" value="" style="endArrow=classic;startArrow=classic;html=1;rounded=0;entryX=0;entryY=0.5;entryDx=0;entryDy=0;exitX=1;exitY=0.5;exitDx=0;exitDy=0;" edge="1" parent="1" source="RnP18blMsBBMerziqIrX-7" target="RnP18blMsBBMerziqIrX-29">
          <mxGeometry width="50" height="50" relative="1" as="geometry">
            <mxPoint x="770" y="340" as="sourcePoint" />
            <mxPoint x="820" y="290" as="targetPoint" />
          </mxGeometry>
        </mxCell>
        <mxCell id="9vrs2LWYSdKxphmmJlrF-14" value="&lt;span style=&quot;color: rgb(0, 0, 0); font-size: 12px; text-wrap: wrap; background-color: rgb(251, 251, 251); float: none; display: inline !important;&quot;&gt;http://&lt;/span&gt;&lt;span style=&quot;color: rgb(0, 0, 0); text-wrap: wrap; background-color: rgb(251, 251, 251); font-size: 11pt; line-height: 15.6933px;&quot;&gt;nealford&lt;/span&gt;&lt;span style=&quot;color: rgb(0, 0, 0); font-size: 12px; text-wrap: wrap; background-color: rgb(251, 251, 251); float: none; display: inline !important;&quot;&gt;.com/main&lt;/span&gt;" style="edgeLabel;html=1;align=center;verticalAlign=middle;resizable=0;points=[];" vertex="1" connectable="0" parent="9vrs2LWYSdKxphmmJlrF-13">
          <mxGeometry x="-0.1103" y="-2" relative="1" as="geometry">
            <mxPoint as="offset" />
          </mxGeometry>
        </mxCell>
        <mxCell id="9vrs2LWYSdKxphmmJlrF-15" value="" style="endArrow=classic;startArrow=classic;html=1;rounded=0;exitX=0.875;exitY=0.5;exitDx=0;exitDy=0;exitPerimeter=0;entryX=0;entryY=0.5;entryDx=0;entryDy=0;" edge="1" parent="1" source="RnP18blMsBBMerziqIrX-5" target="RnP18blMsBBMerziqIrX-7">
          <mxGeometry width="50" height="50" relative="1" as="geometry">
            <mxPoint x="480" y="310" as="sourcePoint" />
            <mxPoint x="530" y="260" as="targetPoint" />
          </mxGeometry>
        </mxCell>
        <mxCell id="9vrs2LWYSdKxphmmJlrF-16" value="https" style="edgeLabel;html=1;align=center;verticalAlign=middle;resizable=0;points=[];" vertex="1" connectable="0" parent="9vrs2LWYSdKxphmmJlrF-15">
          <mxGeometry x="0.3348" relative="1" as="geometry">
            <mxPoint as="offset" />
          </mxGeometry>
        </mxCell>
      </root>
    </mxGraphModel>
  </diagram>
</mxfile>
